<svg xmlns="http://www.w3.org/2000/svg" xmlns:xlink="http://www.w3.org/1999/xlink" preserveAspectRatio="xMidYMid" width="1833.84" height="364.813" viewBox="0 0 1833.84 364.813">
  <defs>
    <style>
      .cls-1 {
        fill: #fff;
        fill-rule: evenodd;
      }
    </style>
  </defs>
  <path d="M1726.157,0.599 L1726.157,7.711 C1726.157,7.711 1737.529,12.428 1740.380,28.029 C1750.248,82.032 1762.730,207.843 1762.730,207.843 L1762.730,342.958 C1762.730,342.958 1761.748,347.228 1759.682,350.069 C1757.685,352.814 1754.602,354.133 1754.602,354.133 L1752.571,354.133 L1752.571,363.276 L1805.397,363.276 L1805.397,355.148 C1805.397,355.148 1800.983,354.517 1798.286,351.085 C1795.402,347.414 1794.223,340.926 1794.223,340.926 L1794.223,222.066 L1822.668,15.838 C1822.668,15.838 1823.982,13.260 1825.715,11.774 C1827.536,10.214 1829.779,9.742 1829.779,9.742 L1833.843,9.742 L1833.843,0.599 L1787.111,0.599 L1787.111,8.727 C1787.111,8.727 1790.708,8.527 1793.207,11.774 C1795.787,15.128 1797.270,21.933 1797.270,21.933 L1785.079,146.889 C1785.079,146.889 1783.810,148.921 1783.048,148.921 C1782.286,148.921 1781.016,146.889 1781.016,146.889 L1768.825,43.267 L1768.825,23.965 C1768.825,23.965 1769.189,15.920 1771.873,12.790 C1774.759,9.424 1775.936,8.727 1775.936,8.727 L1780.000,8.727 L1780.000,0.599 L1726.157,0.599 ZM1575.890,0.277 L1575.890,11.899 L1583.154,11.899 C1583.154,11.899 1585.925,14.536 1587.512,17.710 C1588.799,20.283 1588.965,23.521 1588.965,23.521 L1588.965,338.765 C1588.965,338.765 1588.849,343.020 1587.512,346.029 C1585.960,349.521 1583.154,351.840 1583.154,351.840 L1580.249,351.840 L1580.249,363.461 L1638.358,363.461 L1638.358,353.292 C1638.358,353.292 1634.741,352.946 1632.547,350.387 C1630.383,347.862 1629.642,343.123 1629.642,343.123 L1629.642,196.397 L1632.547,196.397 C1632.547,196.397 1638.216,201.090 1641.264,209.471 C1644.011,217.028 1644.169,228.357 1644.169,228.357 L1644.169,332.954 C1644.169,332.954 1644.236,350.244 1644.169,363.461 C1644.168,363.740 1692.109,363.461 1692.109,363.461 C1692.109,363.461 1692.079,358.127 1692.109,353.292 C1692.110,353.219 1685.672,349.127 1684.846,346.029 C1683.347,340.410 1683.393,331.501 1683.393,331.501 L1683.393,242.884 C1683.393,242.884 1680.748,220.810 1676.129,208.019 C1671.310,194.673 1664.507,190.586 1664.507,190.586 L1664.507,176.058 C1664.507,176.058 1673.592,172.417 1679.035,162.984 C1684.488,153.531 1686.299,138.287 1686.299,138.287 L1686.299,49.670 C1686.299,49.670 1681.258,30.683 1671.771,19.163 C1661.001,6.085 1645.622,0.277 1645.622,0.277 L1575.890,0.277 ZM1629.642,36.596 L1636.905,36.596 C1636.905,36.596 1641.386,39.746 1644.169,45.312 C1646.412,49.797 1647.075,56.934 1647.075,56.934 L1647.075,133.929 C1647.075,133.929 1645.337,141.058 1642.716,145.551 C1640.258,149.766 1636.905,151.362 1636.905,151.362 L1629.642,151.362 L1629.642,36.596 ZM1445.306,53.012 C1445.306,53.012 1449.694,27.579 1458.106,14.611 C1466.758,1.272 1479.440,0.388 1479.440,0.388 L1493.662,0.388 C1493.662,0.388 1507.233,3.611 1514.996,16.033 C1524.776,31.681 1529.219,57.279 1529.219,57.279 C1529.219,57.279 1530.363,68.082 1530.641,85.724 C1531.049,111.598 1530.641,152.486 1530.641,198.082 C1530.641,251.273 1530.641,303.330 1530.641,303.330 C1530.641,303.330 1528.260,331.119 1519.263,345.997 C1509.783,361.676 1493.662,364.487 1493.662,364.487 L1478.018,364.487 C1478.018,364.487 1463.711,360.966 1455.262,348.842 C1447.375,337.526 1445.306,317.552 1445.306,317.552 L1445.306,53.012 ZM1478.018,301.907 C1478.018,301.907 1479.090,313.663 1480.862,320.397 C1482.646,327.174 1485.129,328.930 1485.129,328.930 L1487.974,328.930 C1487.974,328.930 1490.536,326.873 1492.240,320.397 C1494.086,313.383 1495.085,301.907 1495.085,301.907 L1495.085,55.856 C1495.085,55.856 1493.881,43.600 1492.240,37.367 C1490.344,30.160 1487.974,28.833 1487.974,28.833 L1485.129,28.833 C1485.129,28.833 1482.532,29.933 1480.862,35.945 C1478.988,42.691 1478.018,54.434 1478.018,54.434 L1478.018,301.907 ZM1234.665,0.014 L1234.665,10.478 L1240.354,10.478 C1240.354,10.478 1244.507,15.202 1246.144,17.386 C1247.327,18.962 1248.074,21.246 1248.074,21.246 L1248.074,343.591 C1248.074,343.591 1246.702,348.259 1244.900,350.061 C1242.857,352.104 1240.354,354.360 1240.354,354.360 L1237.611,354.360 L1237.611,362.893 L1288.609,362.893 L1288.584,355.141 C1288.584,355.141 1285.716,355.084 1285.536,355.141 C1285.485,355.157 1282.687,352.437 1281.472,351.077 C1279.139,348.465 1277.028,345.521 1277.028,345.521 L1277.028,133.198 L1315.632,364.824 L1356.166,133.198 L1356.166,345.521 C1356.166,345.521 1356.166,347.452 1354.236,349.382 C1352.306,351.312 1348.445,354.258 1348.445,354.258 L1344.788,354.258 L1344.788,362.893 L1394.669,362.893 L1394.669,354.258 L1390.910,354.258 C1390.765,354.323 1386.083,352.523 1384.488,350.293 C1382.653,347.726 1381.259,345.521 1381.259,345.521 L1381.259,19.316 C1381.259,19.316 1382.674,15.481 1385.119,13.525 C1387.499,11.622 1390.910,9.563 1390.910,9.563 L1395.685,9.563 L1395.685,0.014 L1344.585,0.014 L1317.562,202.686 L1292.469,0.014 L1234.665,0.014 ZM1067.487,1.072 L1067.487,5.430 C1067.487,5.430 1071.353,6.768 1074.751,9.788 C1077.879,12.569 1080.562,17.052 1080.562,17.052 L1080.562,345.370 C1080.562,345.370 1078.960,348.899 1077.656,351.181 C1076.081,353.939 1074.751,355.540 1074.751,355.540 L1068.940,355.540 L1068.940,362.803 L1174.990,362.803 L1174.990,237.868 L1166.273,237.868 C1166.273,237.868 1163.214,287.586 1153.199,311.957 C1141.547,340.309 1122.691,343.918 1122.691,343.918 L1118.333,343.918 L1118.333,179.758 L1122.691,179.758 C1122.691,179.758 1129.119,183.678 1132.860,198.644 C1137.080,215.523 1138.671,243.679 1138.671,243.679 L1148.840,243.679 L1148.840,92.594 L1140.124,92.594 C1140.124,92.594 1139.830,116.324 1135.766,130.365 C1131.843,143.917 1124.144,147.798 1124.144,147.798 L1119.786,147.798 C1119.786,147.798 1119.337,147.349 1118.938,146.951 C1118.620,146.632 1118.333,146.345 1118.333,146.345 L1118.333,21.410 L1125.597,21.410 C1125.597,21.410 1142.793,25.498 1151.746,47.559 C1162.890,75.021 1166.273,121.649 1166.273,121.649 L1176.442,121.649 L1176.442,1.072 L1067.487,1.072 ZM850.665,0.014 L850.665,10.478 L856.354,10.478 C856.354,10.478 860.507,15.202 862.144,17.386 C863.327,18.962 864.075,21.246 864.075,21.246 L864.075,343.591 C864.075,343.591 862.702,348.259 860.900,350.061 C858.857,352.104 856.354,354.360 856.354,354.360 L853.611,354.360 L853.611,362.893 L904.609,362.893 L904.584,355.141 C904.584,355.141 901.716,355.084 901.536,355.141 C901.485,355.157 898.687,352.437 897.472,351.077 C895.139,348.465 893.028,345.521 893.028,345.521 L893.028,133.198 L931.632,364.824 L972.166,133.198 L972.166,345.521 C972.166,345.521 972.166,347.452 970.236,349.382 C968.306,351.312 964.445,354.258 964.445,354.258 L960.788,354.258 L960.788,362.893 L1010.669,362.893 L1010.669,354.258 L1006.910,354.258 C1006.765,354.323 1002.083,352.523 1000.488,350.293 C998.653,347.726 997.259,345.521 997.259,345.521 L997.259,19.316 C997.259,19.316 998.674,15.481 1001.119,13.525 C1003.499,11.622 1006.910,9.563 1006.910,9.563 L1011.685,9.563 L1011.685,0.014 L960.585,0.014 L933.562,202.686 L908.469,0.014 L850.665,0.014 ZM617.161,1.115 L617.161,12.689 C617.161,12.689 622.014,12.521 625.842,15.583 C629.220,18.285 631.629,24.264 631.629,24.264 L631.629,342.563 C631.629,342.563 630.737,347.038 627.289,349.797 C623.518,352.814 617.161,354.137 617.161,354.137 L617.161,364.265 L718.438,364.265 L718.438,215.243 L709.757,215.243 C709.757,215.243 700.562,279.064 692.395,306.392 C682.021,341.108 672.140,341.116 672.140,341.116 L667.800,341.116 L667.800,25.711 C667.800,25.711 668.444,19.279 672.140,15.583 C675.675,12.048 682.268,11.243 682.268,11.243 L682.268,1.115 L617.161,1.115 ZM485.060,1.964 L461.874,354.094 C461.874,354.094 459.887,355.980 457.527,356.992 C454.837,358.145 451.731,358.441 451.731,358.441 L451.731,364.237 L498.102,364.237 L498.102,358.441 C498.102,358.441 496.425,358.213 495.204,356.992 C494.300,356.088 493.755,354.094 493.755,354.094 C493.755,354.094 492.651,337.480 492.305,323.663 C491.928,308.556 492.305,296.130 492.305,296.130 L511.144,296.130 L509.694,349.746 C509.694,349.746 509.296,352.343 508.245,354.094 C507.124,355.962 505.347,356.992 505.347,356.992 L505.347,364.237 L558.964,364.237 L558.964,358.441 C558.964,358.441 555.341,358.079 553.167,356.992 C550.994,355.905 550.269,354.094 550.269,354.094 L521.287,1.964 L485.060,1.964 ZM493.755,264.250 L508.245,264.250 L501.000,149.772 L493.755,264.250 ZM280.293,1.257 L280.293,11.426 C280.293,11.426 284.381,12.347 287.557,14.332 C290.128,15.938 291.915,18.690 291.915,18.690 L291.915,347.008 C291.915,347.008 290.605,351.605 287.557,354.272 C284.810,356.675 280.293,357.178 280.293,357.178 L280.293,364.441 L328.233,364.441 L328.233,355.725 L320.970,355.725 C320.970,355.725 319.163,354.285 318.064,352.819 C316.984,351.380 316.612,349.914 316.612,349.914 L316.612,134.909 L351.477,364.441 L384.890,364.441 L384.890,23.048 C384.890,23.048 385.537,18.795 387.795,15.784 C389.889,12.993 393.607,11.426 393.607,11.426 L393.607,1.257 L350.024,1.257 L350.024,11.426 C350.024,11.426 353.491,13.440 355.835,15.784 C357.819,17.768 358.741,20.143 358.741,20.143 L358.741,204.640 L331.139,1.257 L280.293,1.257 ZM167.710,1.723 L167.710,11.839 C167.710,11.839 172.367,13.606 174.936,16.175 C177.424,18.663 177.826,21.955 177.826,21.955 L177.826,342.775 C177.826,342.775 176.477,346.918 174.936,350.001 C173.602,352.668 172.046,354.336 172.046,354.336 L167.710,354.336 L167.710,364.452 L222.625,364.452 L222.625,354.336 L218.290,354.336 C218.290,354.336 215.852,352.350 213.954,348.556 C212.249,345.145 211.064,339.885 211.064,339.885 L211.064,21.955 C211.064,21.955 212.774,17.355 215.400,14.730 C217.824,12.305 221.180,11.839 221.180,11.839 L221.180,1.723 L167.710,1.723 ZM-0.000,1.437 L-0.000,10.437 L6.000,10.437 C6.000,10.437 8.984,10.917 11.000,13.437 C12.984,15.917 14.000,20.437 14.000,20.437 L14.000,344.437 C14.000,344.437 13.540,348.614 12.000,351.437 C10.542,354.110 8.000,355.437 8.000,355.437 L2.000,355.437 L2.000,364.437 L63.000,364.437 L63.000,355.437 L58.000,355.437 C58.000,355.437 56.225,354.397 55.000,352.437 C53.725,350.398 53.000,347.437 53.000,347.437 L53.000,179.437 C53.000,179.437 61.791,178.831 68.000,192.437 C75.565,209.018 75.000,243.437 75.000,243.437 L84.000,243.437 L84.000,93.437 L75.000,93.437 C75.000,93.437 73.073,124.759 69.000,137.437 C64.374,151.835 53.000,148.437 53.000,148.437 L53.000,21.437 C53.000,21.437 77.548,21.770 87.000,42.437 C99.583,69.951 103.000,121.437 103.000,121.437 L113.000,121.437 L113.000,1.437 L-0.000,1.437 Z" class="cls-1"/>
</svg>
